<svg width="1447" height="1447" viewBox="0 0 1447 1447" fill="none" xmlns="http://www.w3.org/2000/svg">
<rect width="1447" height="1447" rx="200" fill="#1AB2A5"/>
<circle cx="723.5" cy="723.5" r="641" fill="white" stroke="#1D1D1E" stroke-width="55"/>
<path d="M325.499 795C418.907 841.99 465.629 862.728 563.129 813.228C563.129 820.728 550.229 846.528 498.629 889.728C434.129 943.728 360.129 966.228 301.629 960.228C243.129 954.228 199.179 924 196.129 860.728C194.129 819.228 244 754 325.499 795Z" fill="#F07D1A"/>
<path d="M1071.16 986.407C971.473 930.84 921.515 906.132 814.074 958.124C814.332 949.753 829.209 921.388 886.655 874.895C958.461 816.778 1039.49 794.138 1102.73 802.788C1165.96 811.439 1212.59 846.646 1213.72 917.367C1214.46 963.753 1158.13 1034.89 1071.16 986.407Z" fill="#E5B702"/>
<circle cx="437.5" cy="1066.5" r="58.5" fill="#5EC5EA"/>
<circle cx="225.5" cy="661.5" r="29.5" fill="#85D134"/>
<path d="M1030 1068.5C1030 1087 1015.23 1102 997 1102C978.775 1102 964 1087 964 1068.5C964 1050 978.775 1035 997 1035C1015.23 1035 1030 1050 1030 1068.5Z" fill="#3CA55B"/>
<ellipse cx="908.5" cy="767" rx="23.5" ry="24" fill="#FF0582"/>
<ellipse cx="1190.5" cy="682.5" rx="66.5" ry="67.5" fill="#FF0582"/>
<path d="M426.295 615.53C467.295 636.53 445.295 696.03 501.295 744.03C489.462 748.863 446.1 753.6 414.5 742C375 727.5 345.728 701.274 349.5 659.5C353.206 618.469 385.295 594.53 426.295 615.53Z" fill="#85D134"/>
<path d="M812.605 1190.03C778.029 1159.59 813.988 1107.33 771.513 1047.03C784.172 1045.25 827.366 1051.33 855.142 1070.34C889.863 1094.11 911.786 1126.73 897.855 1166.3C884.172 1205.15 847.18 1220.47 812.605 1190.03Z" fill="#2850B2"/>
<circle cx="357" cy="460" r="76" fill="#CF3CD3"/>
<path fill-rule="evenodd" clip-rule="evenodd" d="M1166.18 494.398L1003.71 277.639L732.815 277.306L895.292 494.065L1046.59 494.251L1085.33 543.358L1072.98 568.188C1074.15 568.324 1077.3 568.975 1080.54 570.492C1083.78 572.008 1086.64 574.334 1087.67 575.308L1104.29 541.363L1064.5 492.383L1045.83 492.869L950.912 375.3L963.2 366.978L1067.12 494.276L1166.18 494.398ZM887.846 507.987L781.618 366.205L722.646 483.28C724.722 486.301 726.874 489.57 729.165 493.052C746.386 519.216 771.521 557.407 832.026 592.469C900.584 632.198 975.84 628.237 1008.92 624.375L1055.52 531.63L1036.43 509.119L887.846 507.987ZM1034.86 621.698C1046.1 638.611 1061.51 640.177 1067.81 638.846L1025.76 752.48L966.971 723L1034.86 621.698ZM1064.9 622.917C1075.94 622.629 1084.66 613.445 1084.37 602.403C1084.08 591.361 1074.9 582.643 1063.86 582.93C1052.81 583.218 1044.1 592.402 1044.38 603.444C1044.67 614.486 1053.86 623.204 1064.9 622.917Z" fill="#1AB2A5"/>
<path fill-rule="evenodd" clip-rule="evenodd" d="M766.126 573.324L538.854 1172.09H669.263L872.957 635.442C855.57 629.926 837.863 622.436 820.494 612.371C798.411 599.574 780.652 586.318 766.126 573.324ZM686.45 546.434C691.891 560.817 695.518 576.998 695.518 594.978C695.518 648.916 662.873 695.662 615.718 713.641L467 327.086H601.209L686.45 546.434Z" fill="#1D1D1E"/>
</svg>
