<svg width="130" height="132" viewBox="0 0 130 132" fill="none" xmlns="http://www.w3.org/2000/svg">
<rect width="130" height="132" rx="25" fill="url(#paint0_linear_1575_3008)"/>
<path d="M49.4997 91.8335C48.0788 91.8335 46.863 91.328 45.852 90.3171C44.8411 89.3061 44.3347 88.0894 44.333 86.6668V60.8335C44.333 59.4127 44.8393 58.1968 45.852 57.1858C46.8647 56.1749 48.0806 55.6686 49.4997 55.6668H52.083V50.5002C52.083 46.9266 53.3428 43.8808 55.8624 41.3629C58.382 38.845 61.4278 37.5852 64.9997 37.5835C68.5733 37.5835 71.6199 38.8433 74.1395 41.3629C76.6591 43.8825 77.9181 46.9283 77.9163 50.5002V55.6668H80.4997C81.9205 55.6668 83.1373 56.1732 84.1499 57.1858C85.1626 58.1985 85.6681 59.4144 85.6663 60.8335V86.6668C85.6663 88.0877 85.1609 89.3044 84.1499 90.3171C83.139 91.3297 81.9222 91.8352 80.4997 91.8335H49.4997ZM64.9997 78.9168C66.4205 78.9168 67.6373 78.4114 68.6499 77.4004C69.6626 76.3895 70.1681 75.1727 70.1663 73.7502C70.1663 72.3293 69.6609 71.1134 68.6499 70.1025C67.639 69.0916 66.4222 68.5852 64.9997 68.5835C63.5788 68.5835 62.363 69.0898 61.352 70.1025C60.3411 71.1152 59.8347 72.3311 59.833 73.7502C59.833 75.171 60.3393 76.3877 61.352 77.4004C62.3647 78.4131 63.5806 78.9185 64.9997 78.9168ZM57.2497 55.6668H72.7497V50.5002C72.7497 48.3474 71.9962 46.5175 70.4893 45.0106C68.9823 43.5036 67.1525 42.7502 64.9997 42.7502C62.8469 42.7502 61.017 43.5036 59.5101 45.0106C58.0031 46.5175 57.2497 48.3474 57.2497 50.5002V55.6668Z" fill="black" fill-opacity="0.3"/>
<defs>
<linearGradient id="paint0_linear_1575_3008" x1="3.83171e-07" y1="10" x2="113" y2="132" gradientUnits="userSpaceOnUse">
<stop stop-color="#9747FF"/>
<stop offset="1" stop-color="#23B2A4"/>
</linearGradient>
</defs>
</svg>
