<svg width="25" height="25" viewBox="0 0 25 25" fill="none" xmlns="http://www.w3.org/2000/svg">
<path d="M7.00833 0H17.1583C21.025 0 24.1667 3.14167 24.1667 7.00833V17.1583C24.1667 19.0171 23.4283 20.7997 22.114 22.114C20.7997 23.4283 19.0171 24.1667 17.1583 24.1667H7.00833C3.14167 24.1667 0 21.025 0 17.1583V7.00833C0 5.14961 0.738376 3.36701 2.05269 2.05269C3.36701 0.738376 5.14961 0 7.00833 0ZM6.76667 2.41667C5.61298 2.41667 4.50654 2.87497 3.69075 3.69075C2.87497 4.50654 2.41667 5.61298 2.41667 6.76667V17.4C2.41667 19.8046 4.36208 21.75 6.76667 21.75H17.4C18.5537 21.75 19.6601 21.2917 20.4759 20.4759C21.2917 19.6601 21.75 18.5537 21.75 17.4V6.76667C21.75 4.36208 19.8046 2.41667 17.4 2.41667H6.76667ZM18.4271 4.22917C18.8277 4.22917 19.2119 4.3883 19.4951 4.67156C19.7784 4.95482 19.9375 5.339 19.9375 5.73958C19.9375 6.14017 19.7784 6.52435 19.4951 6.80761C19.2119 7.09087 18.8277 7.25 18.4271 7.25C18.0265 7.25 17.6423 7.09087 17.3591 6.80761C17.0758 6.52435 16.9167 6.14017 16.9167 5.73958C16.9167 5.339 17.0758 4.95482 17.3591 4.67156C17.6423 4.3883 18.0265 4.22917 18.4271 4.22917ZM12.0833 6.04167C13.6857 6.04167 15.2224 6.6782 16.3554 7.81123C17.4885 8.94426 18.125 10.481 18.125 12.0833C18.125 13.6857 17.4885 15.2224 16.3554 16.3554C15.2224 17.4885 13.6857 18.125 12.0833 18.125C10.481 18.125 8.94426 17.4885 7.81123 16.3554C6.6782 15.2224 6.04167 13.6857 6.04167 12.0833C6.04167 10.481 6.6782 8.94426 7.81123 7.81123C8.94426 6.6782 10.481 6.04167 12.0833 6.04167ZM12.0833 8.45833C11.1219 8.45833 10.1999 8.84025 9.52007 9.52007C8.84025 10.1999 8.45833 11.1219 8.45833 12.0833C8.45833 13.0447 8.84025 13.9668 9.52007 14.6466C10.1999 15.3264 11.1219 15.7083 12.0833 15.7083C13.0447 15.7083 13.9668 15.3264 14.6466 14.6466C15.3264 13.9668 15.7083 13.0447 15.7083 12.0833C15.7083 11.1219 15.3264 10.1999 14.6466 9.52007C13.9668 8.84025 13.0447 8.45833 12.0833 8.45833Z" fill="black"/>
</svg>
