<svg width="376" height="179" viewBox="0 0 376 179" fill="none" xmlns="http://www.w3.org/2000/svg">
<path d="M134.63 69.7441C147.355 76.0376 153.719 78.8151 167 72.1855C167 73.19 165.243 76.6454 158.214 82.4313C149.428 89.6637 139.348 92.6772 131.379 91.8736C123.41 91.07 117.423 87.0215 117.008 78.5473C116.735 72.9891 123.529 64.2529 134.63 69.7441Z" fill="#F07D1A"/>
<path d="M234.736 94.8259C221.266 87.3853 214.517 84.0768 200 91.0387C200.034 89.9178 202.044 86.1196 209.807 79.8941C219.509 72.112 230.457 69.0804 239.002 70.2387C247.546 71.3971 253.846 76.1114 253.999 85.5812C254.099 91.7924 246.489 101.318 234.736 94.8259Z" fill="#FFDC0D"/>
<path d="M149.5 113C153.642 113 157 109.642 157 105.5C157 101.358 153.642 98 149.5 98C145.358 98 142 101.358 142 105.5C142 109.642 145.358 113 149.5 113Z" fill="#00EAFF"/>
<path d="M121 55C123.209 55 125 53.2091 125 51C125 48.7909 123.209 47 121 47C118.791 47 117 48.7909 117 51C117 53.2091 118.791 55 121 55Z" fill="#83FF00"/>
<path d="M229 106C229 108.761 227.21 111 225 111C222.792 111 221 108.761 221 106C221 103.239 222.792 101 225 101C227.21 101 229 103.239 229 106Z" fill="#3CA55B"/>
<path d="M213 68C214.657 68 216 66.8807 216 65.5C216 64.1193 214.657 63 213 63C211.343 63 210 64.1193 210 65.5C210 66.8807 211.343 68 213 68Z" fill="#FF00FF"/>
<path d="M250.5 63C255.194 63 259 58.9706 259 54C259 49.0294 255.194 45 250.5 45C245.806 45 242 49.0294 242 54C242 58.9706 245.806 63 250.5 63Z" fill="#FF00FF"/>
<path d="M148.14 45.0424C153.53 47.8633 150.638 55.8556 158 62.3032C156.443 62.9524 150.743 63.5885 146.588 62.0304C141.395 60.0827 137.547 56.56 138.043 50.9486C138.531 45.4372 142.75 42.2216 148.14 45.0424Z" fill="#83FF00"/>
<path d="M199.665 121.876C194.899 117.866 199.855 110.982 194 103.039C195.745 102.804 201.699 103.605 205.527 106.109C210.312 109.241 213.335 113.538 211.415 118.75C209.528 123.868 204.43 125.886 199.665 121.876Z" fill="#003CFF"/>
<path d="M139 35C144.523 35 149 30.299 149 24.5C149 18.701 144.523 14 139 14C133.477 14 129 18.701 129 24.5C129 30.299 133.477 35 139 35Z" fill="#B12BFF"/>
<path fill-rule="evenodd" clip-rule="evenodd" d="M247 29.2396L225.388 0.044852L189.351 0L210.965 29.1947L231.092 29.2198L236.245 35.8339L234.601 39.1782C234.758 39.1965 235.177 39.2842 235.608 39.4885C236.039 39.6927 236.419 40.006 236.556 40.1371L238.767 35.5652L233.474 28.9682L230.991 29.0336L218.364 13.1986L219.999 12.0777L233.823 29.2232L247 29.2396ZM209.974 31.0699L195.844 11.9736L188 27.7421C188.275 28.149 188.561 28.5893 188.866 29.0583C191.157 32.5823 194.501 37.7261 202.55 42.4485C211.669 47.7995 221.68 47.266 226.081 46.7459L232.28 34.2543L229.739 31.2223L209.974 31.0699ZM229.531 46.3853C231.027 48.6633 233.076 48.8742 233.914 48.6949L228.321 64L220.5 60.0294L229.531 46.3853ZM233.527 46.5495C234.996 46.5107 236.156 45.2737 236.117 43.7865C236.079 42.2993 234.858 41.1251 233.389 41.1637C231.919 41.2025 230.76 42.4395 230.798 43.9267C230.836 45.4139 232.058 46.5881 233.527 46.5495Z" fill="#1AB2A5"/>
<path fill-rule="evenodd" clip-rule="evenodd" d="M193.525 39.9287L162.734 120H180.402L208 48.2356C205.644 47.4979 203.245 46.4963 200.891 45.1504C197.9 43.439 195.494 41.6664 193.525 39.9287ZM182.731 36.3328C183.468 38.2562 183.96 40.42 183.96 42.8244C183.96 50.0374 179.537 56.2886 173.149 58.6929L153 7H171.183L182.731 36.3328Z" fill="white"/>
<path d="M100.106 70.8547C105.383 97.1177 108.581 109.818 134 121.671C132.485 122.855 125.232 124.327 108.344 120.738C87.2334 116.251 70.9856 104.876 62.9482 92.127C54.9094 79.378 54.0672 65.7388 66.3688 55.1337C74.4369 48.1778 95.5024 47.9397 100.106 70.8547Z" fill="#1AB2A5"/>
<path d="M41.7229 90.0337C52.8938 90.6662 53.8459 105.848 71 110.949C68.8454 113.155 59.6765 118.396 51.5173 118.914C41.3186 119.562 32.2407 116.647 28.9786 107.119C25.7728 97.7613 30.552 89.4012 41.7229 90.0337Z" fill="#1AB2A5"/>
<path d="M275.895 70.8547C270.618 97.1177 267.42 109.818 242 121.671C243.515 122.855 250.768 124.327 267.656 120.738C288.773 116.251 305.019 104.876 313.055 92.127C321.091 79.378 321.929 65.7388 309.635 55.1337C301.559 48.1778 280.499 47.9397 275.895 70.8547Z" fill="#1AB2A5"/>
<path d="M334.284 90.0337C323.103 90.6662 322.153 105.848 305 110.949C307.156 113.155 316.328 118.396 324.482 118.914C334.686 119.562 343.764 116.647 347.018 107.119C350.231 97.7613 345.451 89.4012 334.284 90.0337Z" fill="#1AB2A5"/>
<path d="M51 174.288L59.3691 132.712H76.2866C81.5076 132.712 85.5316 133.86 88.3615 136.158C91.2314 138.414 92.6664 141.581 92.6664 145.661C92.6664 149.144 91.8493 152.194 90.2151 154.806C88.5808 157.38 86.2298 159.36 83.1606 160.746C80.1315 162.131 76.5259 162.825 72.3414 162.825H58.7714L63.9122 158.43L60.744 174.288H51ZM63.6728 159.558L60.2652 154.984H72.7587C75.9469 154.984 78.4183 154.272 80.1715 152.846C81.9649 151.382 82.8623 149.263 82.8623 146.491C82.8623 144.473 82.1844 142.987 80.8296 142.037C79.4749 141.047 77.5611 140.552 75.091 140.552H63.3143L68.4551 135.86L63.6728 159.558ZM113.693 175C109.628 175 106.241 174.208 103.531 172.624C100.82 171.04 98.9079 168.843 97.7925 166.032C96.7159 163.181 96.5568 159.835 97.3137 155.994L101.977 132.712H111.721L107.058 155.816C106.699 157.677 106.599 159.301 106.759 160.687C106.919 162.073 107.317 163.221 107.955 164.131C108.632 165.043 109.549 165.715 110.705 166.151C111.86 166.587 113.215 166.804 114.769 166.804C116.723 166.804 118.416 166.428 119.851 165.675C121.286 164.923 122.481 163.735 123.437 162.111C124.394 160.489 125.131 158.39 125.649 155.816L130.311 132.712H139.817L135.094 156.41C133.859 162.547 131.448 167.181 127.861 170.308C124.275 173.436 119.551 175 113.693 175ZM141.077 174.288L149.446 132.712H166.484C171.705 132.712 175.729 133.84 178.559 136.098C181.429 138.354 182.864 141.522 182.864 145.601C182.864 149.085 182.027 152.114 180.352 154.688C178.718 157.222 176.367 159.182 173.299 160.567C170.27 161.953 166.683 162.647 162.539 162.647H148.909L153.989 158.43L150.821 174.288H141.077ZM167.978 174.288L159.429 159.202H169.592L178.2 174.288H167.978ZM153.751 159.558L150.402 154.984H162.897C166.125 154.984 168.616 154.272 170.369 152.846C172.162 151.382 173.06 149.263 173.06 146.491C173.06 144.473 172.362 142.987 170.967 142.037C169.612 141.047 167.7 140.552 165.228 140.552H153.451L158.533 135.86L153.751 159.558ZM199.622 175C197.351 175 195.139 174.783 192.987 174.348C190.874 173.952 188.942 173.396 187.189 172.684C185.474 171.972 184.021 171.2 182.825 170.368L186.77 162.943C188.085 163.855 189.48 164.647 190.955 165.319C192.469 165.953 194.043 166.448 195.677 166.804C197.311 167.121 198.945 167.279 200.578 167.279C202.372 167.279 203.907 167.081 205.181 166.685C206.497 166.289 207.494 165.735 208.17 165.023C208.889 164.309 209.247 163.439 209.247 162.409C209.247 161.459 208.869 160.687 208.112 160.093C207.353 159.499 206.357 159.004 205.123 158.608C203.927 158.172 202.591 157.756 201.117 157.36C199.642 156.964 198.148 156.51 196.633 155.994C195.159 155.44 193.803 154.768 192.569 153.976C191.373 153.144 190.397 152.094 189.639 150.827C188.882 149.56 188.503 147.977 188.503 146.075C188.503 143.225 189.28 140.75 190.834 138.652C192.428 136.554 194.661 134.93 197.53 133.782C200.399 132.594 203.767 132 207.633 132C210.463 132 213.132 132.316 215.643 132.95C218.154 133.544 220.305 134.414 222.099 135.564L218.453 142.927C216.859 141.859 215.086 141.067 213.132 140.552C211.179 139.998 209.167 139.721 207.095 139.721C205.221 139.721 203.607 139.938 202.253 140.374C200.938 140.809 199.922 141.423 199.203 142.215C198.527 142.967 198.187 143.839 198.187 144.829C198.187 145.819 198.547 146.631 199.264 147.263C200.021 147.857 201.017 148.372 202.253 148.808C203.488 149.204 204.843 149.6 206.318 149.996C207.792 150.392 209.267 150.847 210.741 151.362C212.216 151.876 213.571 152.53 214.806 153.322C216.042 154.114 217.038 155.124 217.795 156.351C218.552 157.539 218.931 159.043 218.931 160.865C218.931 163.715 218.134 166.211 216.539 168.348C214.945 170.446 212.695 172.09 209.785 173.278C206.916 174.426 203.528 175 199.622 175ZM242.884 175C238.82 175 235.432 174.208 232.721 172.624C230.012 171.04 228.099 168.843 226.983 166.032C225.908 163.181 225.747 159.835 226.505 155.994L231.167 132.712H240.911L236.249 155.816C235.89 157.677 235.791 159.301 235.95 160.687C236.109 162.073 236.507 163.221 237.145 164.131C237.823 165.043 238.739 165.715 239.895 166.151C241.052 166.587 242.406 166.804 243.96 166.804C245.913 166.804 247.607 166.428 249.042 165.675C250.476 164.923 251.672 163.735 252.629 162.111C253.585 160.489 254.322 158.39 254.84 155.816L259.503 132.712H269.008L264.285 156.41C263.05 162.547 260.638 167.181 257.052 170.308C253.465 173.436 248.743 175 242.884 175ZM270.269 174.288L278.638 132.712H288.382L280.013 174.288H270.269ZM298.546 174.288L305.313 140.552H291.912L293.531 132.712H330L328.382 140.552H315.048L308.241 174.288H298.546Z" fill="white"/>
<path d="M375.1 142.553C376.921 145.918 375.892 150.188 372.792 152.091C369.705 153.995 365.721 152.811 363.9 149.446C362.079 146.083 363.109 141.812 366.196 139.909C369.296 138.005 373.28 139.19 375.1 142.553Z" fill="#3CA55B"/>
<path d="M361.515 128.776C362.496 130.459 361.942 132.594 360.278 133.545C358.614 134.498 356.466 133.905 355.485 132.223C354.504 130.542 355.058 128.406 356.722 127.454C358.386 126.503 360.534 127.095 361.515 128.776Z" fill="#FF00FF"/>
<path d="M355.546 160.453C345.106 165.698 339.892 168.012 329 162.488C329 163.325 330.446 166.204 336.204 171.026C343.407 177.053 351.672 179.565 358.213 178.895C364.74 178.226 369.648 174.851 369.993 167.79C370.219 163.158 364.647 155.877 355.546 160.453Z" fill="#003CFF"/>
<path d="M344.86 139.042C339.47 141.863 342.362 149.855 335 156.303C336.564 156.953 342.257 157.588 346.411 156.03C351.604 154.082 355.456 150.561 354.956 144.949C354.47 139.437 350.25 136.222 344.86 139.042Z" fill="#FFDC0D"/>
<path d="M0.900068 163.701C-0.920943 160.576 0.108316 156.612 3.2014 154.844C6.29316 153.076 10.2783 154.176 12.0993 157.3C13.9216 160.423 12.891 164.389 9.79926 166.156C6.70618 167.924 2.7224 166.824 0.900068 163.701Z" fill="#83FF00"/>
<path d="M14.4846 177.477C13.5041 176.036 14.0584 174.205 15.7239 173.389C17.3894 172.574 19.5338 173.081 20.5143 174.522C21.4963 175.965 20.9421 177.795 19.2766 178.61C17.6111 179.427 15.4652 178.919 14.4846 177.477Z" fill="#00EAFF"/>
<path d="M20.4574 146.474C30.8905 140.967 36.1091 138.536 47 144.338C47 143.459 45.559 140.435 39.7951 135.372C32.5915 129.044 24.3252 126.407 17.7904 127.111C11.2569 127.813 6.34745 131.355 6.00645 138.771C5.78354 143.634 11.3537 151.279 20.4574 146.474Z" fill="#B12BFF"/>
<path d="M30.6469 167.903C36.3066 164.933 33.2696 156.52 41 149.733C39.3656 149.05 33.3801 148.38 29.0179 150.02C23.5652 152.071 19.5247 155.779 20.0451 161.686C20.5573 167.487 24.9871 170.872 30.6469 167.903Z" fill="#F07D1A"/>
</svg>
