<svg width="131" height="60" viewBox="0 0 131 60" fill="none" xmlns="http://www.w3.org/2000/svg">
<g id="logo">
<path id="Vector" d="M46.9397 23.2103C51.2942 25.3171 53.4721 26.2468 58.0172 24.0275C58.0172 24.3638 57.4158 25.5205 55.0104 27.4573C52.0037 29.8784 48.554 30.8871 45.827 30.6181C43.0999 30.3491 41.0511 28.9939 40.909 26.1572C40.8157 24.2965 43.1405 21.3721 46.9397 23.2103Z" fill="#F07D1A"/>
<path id="Vector_2" d="M81.7009 31.7918C77.0538 29.3005 74.7253 28.1927 69.7168 30.5237C69.7285 30.1484 70.4221 28.8767 73.1002 26.7923C76.4473 24.1866 80.2246 23.1716 83.1726 23.5594C86.1202 23.9473 88.2939 25.5257 88.3466 28.6964C88.3811 30.7761 85.7556 33.9655 81.7009 31.7918Z" fill="#FFDC0D"/>
<path id="Vector_3" d="M52.1607 38.0053C53.6668 38.0053 54.8877 36.8311 54.8877 35.3826C54.8877 33.934 53.6668 32.7598 52.1607 32.7598C50.6545 32.7598 49.4336 33.934 49.4336 35.3826C49.4336 36.8311 50.6545 38.0053 52.1607 38.0053Z" fill="#00EAFF"/>
<path id="Vector_4" d="M42.2795 18.5475C43.039 18.5475 43.6547 17.9554 43.6547 17.2249C43.6547 16.4945 43.039 15.9023 42.2795 15.9023C41.52 15.9023 40.9043 16.4945 40.9043 17.2249C40.9043 17.9554 41.52 18.5475 42.2795 18.5475Z" fill="#83FF00"/>
<path id="Vector_5" d="M79.7818 35.4726C79.7818 36.3021 79.0932 36.9746 78.2434 36.9746C77.3941 36.9746 76.7051 36.3021 76.7051 35.4726C76.7051 34.6432 77.3941 33.9707 78.2434 33.9707C79.0932 33.9707 79.7818 34.6432 79.7818 35.4726Z" fill="#3CA55B"/>
<path id="Vector_6" d="M74.117 23.0309C74.722 23.0309 75.2125 22.5492 75.2125 21.9549C75.2125 21.3607 74.722 20.8789 74.117 20.8789C73.5119 20.8789 73.0215 21.3607 73.0215 21.9549C73.0215 22.5492 73.5119 23.0309 74.117 23.0309Z" fill="#FF00FF"/>
<path id="Vector_7" d="M87.2641 21.1927C88.9761 21.1927 90.364 19.8378 90.364 18.1664C90.364 16.4951 88.9761 15.1401 87.2641 15.1401C85.552 15.1401 84.1641 16.4951 84.1641 18.1664C84.1641 19.8378 85.552 21.1927 87.2641 21.1927Z" fill="#FF00FF"/>
<path id="Vector_8" d="M51.6383 15.1639C53.5496 16.1054 52.5241 18.773 55.1346 20.925C54.5826 21.1417 52.5614 21.354 51.0883 20.834C49.2469 20.1839 47.8825 19.0081 48.0582 17.1352C48.2312 15.2956 49.7271 14.2223 51.6383 15.1639Z" fill="#83FF00"/>
<path id="Vector_9" d="M69.6484 40.9211C68.0364 39.5563 69.7127 37.2133 67.7324 34.5098C68.3226 34.43 70.3364 34.7026 71.6309 35.5549C73.2495 36.6206 74.2718 38.0831 73.6224 39.8572C72.9843 41.599 71.2599 42.2858 69.6484 40.9211Z" fill="#003CFF"/>
<path id="Vector_10" d="M48.4081 11.5985C50.3647 11.5985 51.9509 10.0729 51.9509 8.19107C51.9509 6.30923 50.3647 4.78369 48.4081 4.78369C46.4514 4.78369 44.8652 6.30923 44.8652 8.19107C44.8652 10.0729 46.4514 11.5985 48.4081 11.5985Z" fill="#B12BFF"/>
<g id="Group 2">
<path id="Vector_11" fill-rule="evenodd" clip-rule="evenodd" d="M86.1308 9.7331L78.5571 0.0149301L65.9287 0L73.5029 9.71817L80.556 9.72651L82.3619 11.9282L81.7857 13.0414C81.8407 13.0475 81.9876 13.0767 82.1386 13.1447C82.2896 13.2127 82.423 13.3169 82.471 13.3606L83.2457 11.8387L81.3909 9.64276L80.5206 9.66455L76.0957 4.39346L76.6686 4.02035L81.513 9.72763L86.1308 9.7331ZM73.1556 10.3423L68.204 3.98569L65.4551 9.23463C65.5516 9.37008 65.6518 9.51664 65.7585 9.67275C66.5613 10.8458 67.7332 12.558 70.554 14.13C73.7495 15.9112 77.2579 15.7336 78.7999 15.5605L80.9722 11.4024L80.0819 10.3931L73.1556 10.3423ZM80.0092 15.4405C80.5332 16.1987 81.2515 16.2689 81.5452 16.2093L79.5849 21.3039L76.8444 19.9822L80.0092 15.4405ZM81.4095 15.4951C81.9242 15.4822 82.3307 15.0704 82.3172 14.5754C82.3036 14.0803 81.8757 13.6895 81.3611 13.7023C80.8459 13.7153 80.4399 14.127 80.4529 14.6221C80.4665 15.1171 80.8944 15.508 81.4095 15.4951Z" fill="#1AB2A5"/>
<path id="Vector_12" fill-rule="evenodd" clip-rule="evenodd" d="M67.481 13.2718L56.8865 40.1168H62.9657L72.4615 16.0568C71.6508 15.8095 70.8253 15.4736 70.0156 15.0224C68.9863 14.4487 68.1583 13.8543 67.481 13.2718ZM63.7671 12.0662C64.0207 12.711 64.1899 13.4365 64.1899 14.2426C64.1899 16.6609 62.6679 18.7567 60.4699 19.5627L53.5371 2.23193H59.7935L63.7671 12.0662Z" fill="black"/>
</g>
<path id="Vector_13" d="M35.0015 23.5773C36.8503 32.4409 37.971 36.7271 46.877 40.7277C46.3461 41.1271 43.805 41.6239 37.888 40.4125C30.4914 38.8984 24.7986 35.0593 21.9825 30.7566C19.1659 26.4539 18.8709 21.8507 23.181 18.2716C26.0078 15.924 33.3886 15.8436 35.0015 23.5773Z" fill="#1AB2A5"/>
<path id="Vector_14" d="M14.5486 30.0188C18.4373 30.2332 18.7688 35.382 24.7403 37.1121C23.9903 37.8604 20.7985 39.6376 17.9582 39.8134C14.4079 40.0331 11.2477 39.0445 10.1121 35.8133C8.99615 32.6395 10.6599 29.8042 14.5486 30.0188Z" fill="#1AB2A5"/>
<path id="Vector_15" d="M95.9673 23.5773C94.1185 32.4409 92.9979 36.7271 84.0918 40.7277C84.6228 41.1271 87.1638 41.6239 93.0808 40.4125C100.479 38.8984 106.171 35.0593 108.987 30.7566C111.802 26.4539 112.096 21.8507 107.789 18.2716C104.959 15.924 97.5803 15.8436 95.9673 23.5773Z" fill="#1AB2A5"/>
<path id="Vector_16" d="M116.422 30.0188C112.529 30.2332 112.198 35.382 106.227 37.1121C106.977 37.8604 110.17 39.6376 113.009 39.8134C116.561 40.0331 119.722 39.0445 120.855 35.8133C121.974 32.6395 120.309 29.8042 116.422 30.0188Z" fill="#1AB2A5"/>
<path id="Vector_17" d="M17.6504 58.2259L20.5676 44.1973H26.4646C28.2845 44.1973 29.6872 44.5847 30.6736 45.3599C31.674 46.1212 32.1742 47.19 32.1742 48.5664C32.1742 49.742 31.8894 50.7709 31.3197 51.6523C30.7501 52.5208 29.9306 53.1888 28.8607 53.6564C27.8049 54.124 26.5481 54.3581 25.0894 54.3581H20.3593L22.1512 52.875L21.0469 58.2259H17.6504ZM22.0678 53.2556L20.88 51.7124H25.2349C26.3462 51.7124 27.2077 51.4721 27.8188 50.991C28.4439 50.497 28.7567 49.7819 28.7567 48.8466C28.7567 48.1656 28.5204 47.6644 28.0482 47.3438C27.576 47.0098 26.9089 46.8425 26.0479 46.8425H21.9428L23.7348 45.2595L22.0678 53.2556ZM39.5037 58.4662C38.0866 58.4662 36.9058 58.199 35.9613 57.6646C35.0164 57.1301 34.3498 56.3886 33.961 55.4404C33.5858 54.4782 33.5303 53.3493 33.7941 52.0531L35.4197 44.1973H38.8161L37.1906 51.9931C37.0657 52.6212 37.0307 53.1691 37.0867 53.6367C37.1421 54.1043 37.281 54.4917 37.5034 54.7988C37.7393 55.1063 38.0591 55.3332 38.4618 55.4803C38.8646 55.6273 39.3368 55.7008 39.8785 55.7008C40.5596 55.7008 41.1497 55.574 41.6499 55.3198C42.1501 55.066 42.5669 54.6652 42.9002 54.1173C43.2335 53.5699 43.4903 52.8615 43.6712 51.9931L45.2963 44.1973H48.6097L46.9633 52.1935C46.533 54.2644 45.6925 55.8277 44.4423 56.8831C43.192 57.9385 41.5455 58.4662 39.5037 58.4662ZM49.0489 58.2259L51.9661 44.1973H57.9051C59.725 44.1973 61.1277 44.578 62.1141 45.3397C63.1144 46.101 63.6147 47.1698 63.6147 48.5462C63.6147 49.7218 63.3228 50.744 62.7392 51.6124C62.1695 52.4674 61.35 53.1287 60.2806 53.5963C59.2248 54.064 57.9745 54.298 56.5299 54.298H51.7787L53.5497 52.875L52.4453 58.2259H49.0489ZM58.4258 58.2259L55.446 53.1354H58.9884L61.9891 58.2259H58.4258ZM53.4667 53.2556L52.2994 51.7124H56.6548C57.7801 51.7124 58.6481 51.4721 59.2593 50.991C59.8844 50.497 60.1972 49.7819 60.1972 48.8466C60.1972 48.1656 59.9539 47.6644 59.4677 47.3438C58.9954 47.0098 58.3288 46.8425 57.4674 46.8425H53.3623L55.1337 45.2595L53.4667 53.2556ZM69.4561 58.4662C68.6646 58.4662 67.8935 58.3931 67.1435 58.2461C66.4069 58.1125 65.7334 57.9251 65.1222 57.6847C64.5246 57.4444 64.0179 57.184 63.6011 56.9033L64.9763 54.398C65.4346 54.7055 65.9208 54.9727 66.435 55.1996C66.9627 55.4135 67.5113 55.5807 68.081 55.7008C68.6506 55.8076 69.2203 55.8609 69.7895 55.8609C70.4146 55.8609 70.9497 55.7941 71.394 55.6605C71.8527 55.5269 72.2 55.3399 72.4359 55.0996C72.6862 54.8589 72.8111 54.5652 72.8111 54.2177C72.8111 53.8972 72.6792 53.6367 72.4154 53.4363C72.1511 53.2359 71.8037 53.0686 71.3735 52.935C70.9567 52.788 70.491 52.6476 69.9773 52.514C69.4631 52.3804 68.9425 52.2271 68.4143 52.0531C67.9006 51.8662 67.4279 51.6393 66.9976 51.3721C66.5808 51.0915 66.2405 50.7373 65.9762 50.3096C65.7124 49.8823 65.5805 49.3479 65.5805 48.7063C65.5805 47.7446 65.8513 46.9094 66.393 46.2014C66.9487 45.4935 67.7267 44.9456 68.7271 44.5583C69.727 44.1574 70.9008 43.957 72.2485 43.957C73.2349 43.957 74.1653 44.0637 75.0408 44.2776C75.9158 44.478 76.6659 44.7717 77.291 45.1595L76.0202 47.6442C75.4645 47.2837 74.8464 47.0165 74.1653 46.8425C73.4847 46.6556 72.7832 46.5623 72.0611 46.5623C71.408 46.5623 70.8453 46.6354 70.3731 46.7825C69.9148 46.9295 69.5606 47.1367 69.3102 47.4039C69.0744 47.6576 68.9559 47.9517 68.9559 48.2858C68.9559 48.6198 69.0814 48.8937 69.3312 49.1071C69.5951 49.3075 69.9423 49.4815 70.3731 49.6285C70.8038 49.7621 71.2761 49.8957 71.7902 50.0293C72.304 50.163 72.8181 50.3163 73.3318 50.4902C73.846 50.6637 74.3182 50.8843 74.749 51.1515C75.1797 51.4187 75.527 51.7595 75.7908 52.1738C76.0547 52.5746 76.1866 53.0821 76.1866 53.6968C76.1866 54.6585 75.9088 55.5004 75.3531 56.2218C74.7975 56.9297 74.0129 57.4843 72.9985 57.8852C71.9986 58.2725 70.8178 58.4662 69.4561 58.4662ZM84.5361 58.4662C83.1194 58.4662 81.9386 58.199 80.9937 57.6646C80.0493 57.1301 79.3826 56.3886 78.9934 55.4404C78.6186 54.4782 78.5626 53.3493 78.827 52.0531L80.452 44.1973H83.8485L82.2234 51.9931C82.098 52.6212 82.0635 53.1691 82.119 53.6367C82.1745 54.1043 82.3134 54.4917 82.5358 54.7988C82.7721 55.1063 83.0914 55.3332 83.4942 55.4803C83.8974 55.6273 84.3697 55.7008 84.9113 55.7008C85.5919 55.7008 86.1826 55.574 86.6828 55.3198C87.1825 55.066 87.5993 54.6652 87.933 54.1173C88.2663 53.5699 88.5232 52.8615 88.7036 51.9931L90.3291 44.1973H93.6421L91.9961 52.1935C91.5654 54.2644 90.7249 55.8277 89.4746 56.8831C88.2244 57.9385 86.5784 58.4662 84.5361 58.4662ZM94.0817 58.2259L96.999 44.1973H100.395L97.4782 58.2259H94.0817ZM103.938 58.2259L106.297 46.8425H101.626L102.19 44.1973H114.902L114.338 46.8425H109.691L107.318 58.2259H103.938Z" fill="black"/>
<path id="Vector_18" d="M130.682 47.7115C131.325 48.784 130.962 50.1447 129.866 50.7513C128.775 51.3579 127.368 50.9808 126.724 49.9084C126.081 48.8364 126.445 47.4753 127.535 46.8686C128.631 46.262 130.039 46.6395 130.682 47.7115Z" fill="#3CA55B"/>
<path id="Vector_19" d="M125.731 43.0846C126.053 43.6208 125.871 44.3014 125.326 44.6045C124.78 44.908 124.076 44.7193 123.755 44.1831C123.433 43.6473 123.615 42.9667 124.16 42.6632C124.706 42.3601 125.41 42.5489 125.731 43.0846Z" fill="#FF00FF"/>
<path id="Vector_20" d="M123.76 53.722C120.091 55.4974 118.259 56.2806 114.432 54.4106C114.432 54.694 114.94 55.6686 116.963 57.3006C119.494 59.341 122.398 60.1911 124.697 59.9642C126.99 59.7378 128.715 58.5954 128.836 56.2053C128.915 54.6375 126.957 52.1729 123.76 53.722Z" fill="#003CFF"/>
<path id="Vector_21" d="M120.063 46.5349C118.151 47.4765 119.177 50.1441 116.566 52.2961C117.121 52.5131 119.14 52.7252 120.613 52.2051C122.454 51.555 123.82 50.3795 123.643 48.5063C123.47 46.6668 121.974 45.5934 120.063 46.5349Z" fill="#FFDC0D"/>
<path id="Vector_22" d="M0.317966 54.7886C-0.32534 53.7161 0.0382648 52.3554 1.13095 51.7488C2.22318 51.1418 3.631 51.5193 4.27431 52.5917C4.91808 53.6637 4.554 55.0248 3.46177 55.6314C2.36909 56.2381 0.961739 55.8605 0.317966 54.7886Z" fill="#83FF00"/>
<path id="Vector_23" d="M5.26445 59.415C4.9428 58.8792 5.12461 58.1986 5.67095 57.8951C6.2173 57.592 6.92074 57.7808 7.24239 58.3166C7.56451 58.8528 7.38271 59.5334 6.83636 59.8364C6.29002 60.14 5.5861 59.9512 5.26445 59.415Z" fill="#00EAFF"/>
<path id="Vector_24" d="M7.23942 48.7784C10.9049 47.003 12.7383 46.2193 16.5646 48.0898C16.5646 47.8064 16.0583 46.8317 14.0333 45.1993C11.5025 43.1594 8.59829 42.3093 6.30243 42.5362C4.00704 42.7626 2.28223 43.9045 2.16242 46.2951C2.08411 47.8629 4.04107 50.3274 7.23942 48.7784Z" fill="#B12BFF"/>
<path id="Vector_25" d="M10.9333 55.9649C12.8446 55.0234 11.819 52.3558 14.4295 50.2037C13.8776 49.9872 11.8563 49.7747 10.3832 50.2948C8.54185 50.9449 7.17739 52.1209 7.35313 53.9936C7.52608 55.8331 9.02201 56.9064 10.9333 55.9649Z" fill="#F07D1A"/>
</g>
</svg>
